<?xml version="1.0" encoding="UTF-8"?>
<svg width="171.725312px" height="157.401667px" viewBox="0 0 171.725312 157.401667" version="1.1" xmlns="http://www.w3.org/2000/svg" xmlns:xlink="http://www.w3.org/1999/xlink">
    <title>ilustra_buscavazia</title>
    <g id="ilustra_buscavazia" stroke="none" stroke-width="1" fill="none" fill-rule="evenodd">
        <path d="M95.9625882,160.788626 C156.172053,153.098353 119.34956,130.775478 136.13223,93.5489009 C156.191229,49.0549143 149.725402,15.635929 96.3874406,9.76279509 C69.0388067,6.75139037 47.9056259,5.93207526 36.7916676,17.4072557 C16.1279769,38.7425508 28.35235,53.3447394 32.5964275,83.5429197 C39.8844478,135.399879 48.6945964,160.788626 95.9625882,160.788626 Z" id="Oval" fill="#6F17B4" opacity="0.1" transform="translate(85.862656, 84.310383) rotate(100.000000) translate(-85.862656, -84.310383) "></path>
        <g id="freepik--Shadow--inject-3" transform="translate(63.815626, 94.500782)" fill="#E0E0E0" fill-rule="nonzero">
            <path d="M80.9272871,18.6053475 C80.524065,16.7471952 78.5199907,15.2715151 76.2481047,14.5095824 C75.2400494,13.2567601 73.3894402,11.8383003 70.2298637,10.2933536 C63.2306494,6.87820822 59.4542031,5.11341531 57.5163295,4.23704203 C56.2294569,3.68277568 54.760846,3.74258738 53.5232266,4.399668 L37.4635504,13.9253335 C37.018817,14.1408218 36.5000154,14.1408218 36.055282,13.9253335 C36.0095142,13.8996543 35.9679141,13.8671593 35.9319081,13.8289626 C35.9655142,13.7914717 36.0051872,13.7599109 36.0492638,13.7356032 C41.9411217,10.2933536 52.0638032,4.3635289 53.6496097,3.32151806 C54.4410084,2.79750105 54.4199445,2.11688126 54.1370872,1.66213087 C53.3517067,0.388227451 49.5271146,-0.572470399 47.8600618,0.394250635 L27.3980423,12.2177608 C26.7059446,12.6183026 26.3267954,13.2085746 26.3629048,13.8349858 C26.4020234,14.5065708 26.8985283,15.0968428 27.7290455,15.4582338 C30.5997465,16.7050329 35.579841,18.9546922 43.0003322,22.5746258 C44.6102293,23.3178026 46.1255484,24.2509948 47.5140129,25.3543252 C47.3755934,25.333244 47.2371738,25.3181861 47.0987543,25.3031281 C41.8207569,24.7881459 38.9741289,26.6764141 38.5709068,28.6490068 C38.2459217,30.227081 39.4044331,31.68168 41.5198449,32.3562766 C44.4898468,33.3049281 49.2984214,32.0822217 50.3395771,29.4862294 C50.6002577,28.8390776 50.6268664,28.1211175 50.4148051,27.4564164 C51.6816448,28.1581173 52.6806729,29.1338731 52.9183934,30.2300926 C53.2433784,31.7358886 52.0668123,33.3169744 49.5150781,34.7926545 C42.1577784,39.0420108 36.5758599,36.4309606 28.2676781,31.6304829 C27.0820846,30.9438399 18.7468208,26.167455 4.16462279,17.819322 C2.25409706,16.7225575 1.07536959,14.6870944 1.07425602,12.4827809 L1.07425602,8.69118661 C1.05320266,8.40987143 0.818999682,8.19237585 0.537128012,8.19237585 C0.255256342,8.19237585 0.0210533603,8.40987143 0,8.69118661 L0,12.4857925 C0.00160299493,15.0751339 1.38707278,17.4657973 3.63200846,18.7529155 C18.2142065,27.1010485 26.5464612,31.8774335 27.7320547,32.5610648 C33.1695354,35.7021553 37.6380794,38 42.2390247,38 C44.7456221,38 47.2883289,37.3193802 50.062738,35.7232364 C53.8482116,33.5368206 54.2755067,31.4076251 53.9745947,30.0012116 C53.5713725,28.131013 51.684654,26.6523213 49.5541966,25.8693074 C48.5581778,24.6074504 46.7015504,23.1739326 43.4908188,21.6079047 C36.0522729,17.9789364 31.0571328,15.7232539 28.1774045,14.4704317 C27.7440911,14.283713 27.4672521,14.0156813 27.4552156,13.7717423 C27.4431791,13.5278034 27.6267354,13.3350615 27.9547296,13.1453312 L48.4167491,1.31880938 C49.2502755,0.836954659 51.2302768,1.10498635 52.4459615,1.66514246 C53.0869041,1.96630166 53.2554149,2.21325221 53.2674514,2.24939131 C53.2794878,2.28553041 53.2403693,2.31564633 53.0808859,2.42105205 C51.5161432,3.45101652 41.4115165,9.36879481 35.5286859,12.8080329 C35.1256162,12.9873993 34.8658716,13.3874827 34.8658716,13.8289626 C34.8658716,14.2704424 35.1256162,14.6705258 35.5286859,14.8498923 C36.309827,15.259576 37.2421058,15.259576 38.0232468,14.8498923 L54.082923,5.32121515 C55.0223403,4.8482859 56.1210791,4.80869882 57.0920435,5.21279784 C59.0238989,6.08917112 62.7883087,7.84794085 69.7784956,11.257063 C71.3880127,12.0009496 72.9032501,12.9340915 74.2921764,14.0367624 C74.1507477,14.0156813 74.0123282,14.0006233 73.8739086,13.9855654 C68.5959113,13.4705831 65.7492833,15.3588513 65.3490702,17.3314441 C65.0240852,18.9095183 66.1825966,20.3641172 68.2980083,21.0387138 C71.2680103,21.9873653 76.0765849,20.764659 77.1147314,18.1686666 C77.3891415,17.4872342 77.4051944,16.7289123 77.1598682,16.0364595 C78.5651275,16.7321373 79.6815112,17.7259626 79.9222409,18.8342285 C80.2412077,20.3129202 78.9864044,21.9180987 76.2902324,23.4750918 L73.8408083,24.89054 C73.7838407,24.8407944 73.7223929,24.796435 73.657252,24.75803 C73.5018861,24.6437151 73.296716,24.6229506 73.1216285,24.7038213 L72.0533907,25.3061397 C71.8606687,25.1871401 71.621263,25.1724475 71.4154572,25.266989 L67.4012904,27.5889264 C67.1879988,27.7343514 67.072273,27.9856827 67.1003784,28.2424419 C67.1015368,28.3261537 67.1085754,28.4096805 67.1214422,28.492404 L66.9739953,28.588775 L66.9739953,28.588775 L66.0712592,29.1549543 L66.0712592,29.1549543 L65.8967302,29.2663832 L65.8967302,29.2663832 L64.993994,29.8446089 L64.993994,29.8446089 L64.8315015,29.947003 L64.8315015,29.947003 L63.9107106,30.5342634 L63.9107106,30.5342634 L63.7632637,30.6276228 L62.5084605,31.1215239 C62.4894287,31.1329822 62.4721913,31.1471894 62.4573054,31.1636861 L62.1172748,31.4648453 L62.1172748,31.4648453 C62.0446695,31.54046 62.007491,31.6433318 62.0149647,31.747935 C62.0345644,32.0960498 62.2175805,32.4143572 62.5084605,32.6062387 C62.5971309,32.6647469 62.7058824,32.6843382 62.8093725,32.6604474 L62.8093725,32.6604474 L63.2426859,32.5279373 C63.2668682,32.5220569 63.2901478,32.51294 63.3118956,32.500833 L63.3118956,32.500833 L64.3680969,31.6605988 L65.4904989,31.0733384 L65.4904989,31.0733384 L65.6590096,30.9860022 L65.6590096,30.9860022 L66.6098917,30.4890895 L66.6098917,30.4890895 L66.7934481,30.3927186 L66.7934481,30.3927186 L67.7322937,29.9018291 L67.7322937,29.9018291 L67.8947862,29.8175045 C67.9595671,29.8703725 68.0279383,29.9186741 68.0994064,29.9620609 C68.3062798,30.1117423 68.5777012,30.1382161 68.8095588,30.0313276 L70.013207,29.341673 L72.8357621,27.7093901 C72.8613584,27.6948078 72.884677,27.6765435 72.9049718,27.6551815 C73.0472281,27.5217731 73.1278539,27.335309 73.1276468,27.1401992 L74.1928754,26.5228229 C74.2661589,26.4807598 74.3241336,26.4164078 74.3583771,26.3391158 C74.3999442,26.2442605 74.4204763,26.1415158 74.4185595,26.0379566 C74.4178219,25.9630623 74.4097592,25.8884203 74.3944865,25.8150987 C74.3944865,25.8150987 74.3944865,25.8150987 74.3944865,25.7940176 L74.3944865,25.7940176 L76.8378924,24.381581 C80.7467399,22.1108406 81.2251901,19.9846566 80.9272871,18.6053475 Z" id="freepik--shadow--inject-3" style="mix-blend-mode: multiply;"></path>
        </g>
        <g id="freepik--Wire--inject-3" transform="translate(63.676830, 93.025345)" fill-rule="nonzero">
            <g id="freepik--wire--inject-3" transform="translate(0.138796, 0.475437)">
                <path d="M42.2369475,38 C37.6362285,38 33.1679043,35.7020125 27.7306909,32.5607269 C26.2262046,31.6903227 13.7961391,24.5704768 3.63182985,18.7517194 C1.38700457,17.4645212 0.0016029161,15.0737093 0,12.484207 L0,8.67129462 C0.021052325,8.38996195 0.255243789,8.17245286 0.537101597,8.17245286 C0.818959406,8.17245286 1.05315087,8.38996195 1.07420319,8.67129462 L1.07420319,12.484207 C1.07577026,14.6877489 2.25446273,16.7222294 4.16441799,17.8180679 C14.3287272,23.639837 26.7618017,30.7687183 28.266288,31.6300871 C36.5800791,36.4338748 42.1557052,39.0420756 49.5126431,34.7924552 C52.0642518,33.3166834 53.24076,31.7385111 52.915791,30.2296098 C52.6780822,29.136334 51.6821123,28.1575057 50.4123259,27.4557612 C50.6235813,28.1216334 50.5969886,28.8403059 50.3371015,29.4887121 C49.299006,32.081854 44.4876589,33.3046363 41.517803,32.3589376 C39.4115223,31.6842991 38.2440409,30.226598 38.56901,28.6514375 C38.9752212,26.6757104 41.8156913,24.7873249 47.0964381,25.3053509 C47.2348509,25.3053509 47.3732636,25.3354687 47.5146853,25.3565511 C46.1250856,24.2540409 44.6100741,23.3199233 43.0012265,22.5736672 C35.5841092,18.9595322 30.6042597,16.7067214 27.7306909,15.456833 C26.9002145,15.0984313 26.403734,14.5051108 26.3646174,13.8334841 C26.3255007,13.1618573 26.7076402,12.6287724 27.3997039,12.2161587 L47.8607171,0.391913729 C49.5276879,-0.5718556 53.352092,0.391913729 54.1374338,1.65987275 C54.4202773,2.12067496 54.4383311,2.79832527 53.6499803,3.31936306 C52.0702697,4.35842687 41.9450771,10.2916318 36.0504999,13.7371072 C36.0068544,13.7608218 35.9672452,13.7913189 35.93315,13.8274605 C35.9683097,13.8665771 36.0100683,13.8991996 36.0565179,13.9238375 C36.5012294,14.1393391 37.0200055,14.1393391 37.464717,13.9238375 L53.5236035,4.39456822 C54.7616284,3.73917464 56.2293761,3.67939144 57.51651,4.23193215 C59.4512793,5.10835988 63.2335578,6.87025068 70.229419,10.28862 C73.400876,11.8366745 75.2513941,13.2582343 76.247364,14.5051108 C78.5071024,15.267091 80.523114,16.7428627 80.9263163,18.6041423 C81.2272136,19.9835371 80.7487869,22.1068414 76.7829611,24.3988053 L71.9896679,27.1696422 C71.7329183,27.3176812 71.4048842,27.2293597 71.2569831,26.9723706 C71.1090821,26.7153816 71.1973212,26.3870414 71.4540708,26.2390024 L76.247364,23.4681656 C78.9554393,21.9110758 80.198145,20.3088093 79.8791939,18.8300257 C79.6384761,17.7186792 78.5221473,16.7217803 77.1169571,16.0320829 C77.3622712,16.7245787 77.3462191,17.4829477 77.0718225,18.1644225 C76.033727,20.7575644 71.2253889,21.9803467 68.255533,21.034648 C66.1492522,20.3600095 64.9817709,18.9023084 65.3067399,17.3271479 C65.7129512,15.3514208 68.5534213,13.4630352 73.8311591,13.9810613 C73.9695718,13.9810613 74.1079846,14.0111791 74.2494063,14.0292497 C72.8605483,12.9265102 71.3453854,11.9933104 69.7359475,11.2493776 C62.7430953,7.84004357 58.9788707,6.08116455 57.0501193,5.20774859 C56.0802341,4.79941944 54.9801371,4.83795875 54.0411467,5.31316086 L37.9822603,14.8424301 C37.2011577,15.2521393 36.2689247,15.2521393 35.4878221,14.8424301 C35.0957521,14.6480034 34.8399825,14.2559188 34.8198302,13.8184252 C34.8392822,13.3839934 35.0911361,12.9937737 35.4787952,12.7974321 C45.6431044,6.85820357 51.8746865,3.15973877 53.030132,2.40980576 C53.1896075,2.30439349 53.2166883,2.23813435 53.2166883,2.23813435 C53.2166883,2.23813435 53.0361499,1.93695643 52.3952388,1.65384919 C51.1916497,1.09365827 49.1997099,0.828621706 48.3662245,1.31050637 L27.9052113,13.1347513 C27.5772333,13.3244934 27.393686,13.5533886 27.4057218,13.7612014 C27.4177577,13.9690141 27.7066191,14.2732038 28.1278753,14.4599341 C31.0104709,15.7158461 36.0083743,17.9716686 43.4405365,21.5978507 C46.6511102,23.1639759 48.5076462,24.6096299 49.5036161,25.86253 C51.6339687,26.6425808 53.5205945,28.1213644 53.9237968,29.9916792 C54.2246941,31.3921565 53.794411,33.5214844 50.0121325,35.7140596 C47.2860034,37.3193379 44.7434216,38 42.2369475,38 Z M45.3873417,26.2902027 C41.9390592,26.2902027 39.8989758,27.4949143 39.6191414,28.8682856 C39.4085133,29.886267 40.2630615,30.8319656 41.8427721,31.3349327 C44.2890667,32.1149835 48.5226911,31.12712 49.3411316,29.0881455 C49.6209661,28.3894127 49.4524636,27.6093619 48.8717319,26.7841344 C48.2623097,26.5764252 47.6314714,26.4380165 46.9911241,26.3715207 C46.4254372,26.3173087 45.8898401,26.2902027 45.3873417,26.2902027 Z M72.1461345,14.965913 C68.7008609,14.965913 66.6607775,16.1706247 66.3809431,17.543996 C66.170315,18.5619774 67.0218542,19.507676 68.6045738,20.0106431 C71.0508685,20.7906939 75.2844928,19.8028304 76.1029334,17.7638559 C76.3857768,17.0560878 76.2082474,16.2579663 75.6094619,15.4267153 C75.0046357,15.2392408 74.382761,15.1121268 73.7529258,15.0472311 C73.187239,14.9930191 72.6516419,14.965913 72.1461345,14.965913 L72.1461345,14.965913 Z" id="Shape" fill="#455A64"></path>
                <g id="freepik--Plug--inject-3" transform="translate(61.999880, 24.649107)">
                    <path d="M11.1031073,0.04786413 C11.2784021,-0.0317070632 11.4828738,-0.011010866 11.6387044,0.102076155 C12.085999,0.39390675 12.3676108,0.881594374 12.3969655,1.41521186 C12.4174582,1.60874473 12.3309547,1.79807553 12.1712926,1.90914365 L9.14125721,3.65898733 L8.07307196,1.79770782 L11.1031073,0.04786413 Z" id="Path" fill="#37474F"></path>
                    <path d="M12.3066963,0.954409655 C12.3618319,1.1020153 12.3923289,1.25769522 12.3969655,1.41521186 C12.4174582,1.60874473 12.3309547,1.79807553 12.1712926,1.90914365 L9.14125721,3.65898733 L8.76212667,2.9994077 L12.3066963,0.954409655 Z" id="Path" fill="#000000" opacity="0.1"></path>
                    <path d="M9.36693015,3.16806733 C9.33805523,2.6343069 9.05632687,2.14641747 8.60866907,1.85493162 C8.45387262,1.74258591 8.25117306,1.7208069 8.07608093,1.79770782 C7.91641878,1.90877593 7.82991526,2.09810673 7.85040799,2.2916396 C7.87928292,2.82540003 8.16101127,3.31328946 8.60866907,3.60477531 C8.75671183,3.73778814 8.97336597,3.76057373 9.14579653,3.66126519 C9.31822709,3.56195665 9.40742289,3.36302182 9.36693015,3.16806733 L9.36693015,3.16806733 Z" id="Path" fill="#37474F"></path>
                    <path d="M9.39701988,0.629137506 C9.62875562,0.521589788 9.90050839,0.548098872 10.1071374,0.698408427 C10.7010022,1.08581003 11.0744039,1.73371787 11.1121342,2.44222856 C11.1395577,2.69889236 11.0239914,2.94990512 10.811237,3.09578463 L6.79425863,5.41485458 L5.38004154,2.94820745 L9.39701988,0.629137506 Z" id="Path" fill="#455A64"></path>
                    <path d="M10.9917753,1.83083739 C11.0659459,2.02327581 11.1066536,2.22700398 11.1121342,2.43319322 C11.1395577,2.68985702 11.0239914,2.94086979 10.811237,3.08674929 L6.79425863,5.40581924 L6.29476919,4.53541507 L10.9917753,1.83083739 Z" id="Path" fill="#000000" opacity="0.1"></path>
                    <path d="M7.09214691,4.76431028 C7.05492254,4.05645287 6.68128083,3.40924823 6.08715009,3.02350193 C5.89456914,2.83406853 5.59950788,2.79621207 5.36541906,2.93090361 C5.13133025,3.06559515 5.01552428,3.33985906 5.08215326,3.60176353 C5.12131919,4.30984737 5.49437314,4.95715189 6.08715009,5.34558366 C6.28001402,5.53622057 6.57640463,5.57427541 6.81109558,5.43853409 C7.04578653,5.30279276 7.16085179,5.02675872 7.09214691,4.76431028 L7.09214691,4.76431028 Z" id="Path" fill="#37474F"></path>
                    <path d="M6.08715009,3.52345727 C5.97093251,3.43816368 5.81747541,3.42315013 5.68695674,3.48430414 L1.75122066,5.9901044 L0.496479117,6.4810244 L1.29987478,7.8815017 L2.35602414,7.04121532 L6.49035241,4.88779323 C6.60971086,4.80561367 6.67441358,4.66452268 6.65885487,4.52035617 C6.6383563,4.11571601 6.42589804,3.74524612 6.08715009,3.52345727 L6.08715009,3.52345727 Z" id="Path" fill="#FFAE40"></path>
                    <path d="M6.08715009,3.52345727 C5.97093251,3.43816368 5.81747541,3.42315013 5.68695674,3.48430414 L1.75122066,5.9901044 L0.496479117,6.4810244 L1.29987478,7.8815017 L2.35602414,7.04121532 L6.49035241,4.88779323 C6.60971086,4.80561367 6.67441358,4.66452268 6.65885487,4.52035617 C6.6383563,4.11571601 6.42589804,3.74524612 6.08715009,3.52345727 L6.08715009,3.52345727 Z" id="Path" fill="#FFFFFF" opacity="0.7"></path>
                    <path d="M0.896672464,6.52318931 C0.780316339,6.43874793 0.6278509,6.42268397 0.496479117,6.4810244 L0.445326584,6.52318931 L0.445326584,6.52318931 L0.114339605,6.83942612 L0.806403288,8.04413778 L1.23969533,7.91463127 L1.23969533,7.91463127 C1.2640046,7.90773124 1.2872805,7.89760184 1.3089017,7.88451348 C1.42875409,7.80135694 1.49343989,7.65914666 1.47740416,7.51406465 C1.45347088,7.10976304 1.23756847,6.74137886 0.896672464,6.52318931 L0.896672464,6.52318931 Z" id="Path" fill="#FFAE40"></path>
                    <path d="M0.896672464,6.52318931 C0.780316339,6.43874793 0.6278509,6.42268397 0.496479117,6.4810244 L0.445326584,6.52318931 L0.445326584,6.52318931 L0.114339605,6.83942612 L0.806403288,8.04413778 L1.23969533,7.91463127 L1.23969533,7.91463127 C1.2640046,7.90773124 1.2872805,7.89760184 1.3089017,7.88451348 C1.42875409,7.80135694 1.49343989,7.65914666 1.47740416,7.51406465 C1.45347088,7.10976304 1.23756847,6.74137886 0.896672464,6.52318931 L0.896672464,6.52318931 Z" id="Path" fill="#FFFFFF" opacity="0.5"></path>
                    <path d="M0.995968558,7.69778318 C0.976160303,7.34894918 0.791858937,7.03031353 0.499488089,6.83942612 C0.402452928,6.75411439 0.261848801,6.74029959 0.150092431,6.8050969 C0.0383360613,6.8698942 -0.0196430718,6.99884928 0.00601659368,7.12554514 C0.0251423442,7.47382228 0.208263212,7.79234744 0.499488089,7.9839022 C0.596241608,8.07183478 0.738639552,8.08720209 0.851895465,8.02193332 C0.965151378,7.95666455 1.02336728,7.82568456 0.995968558,7.69778318 L0.995968558,7.69778318 Z" id="Path" fill="#FFAE40"></path>
                    <path d="M1.75122066,5.9901044 C1.84964132,5.94530406 1.96450927,5.95680157 2.05211792,6.02022219 C2.30365717,6.18559129 2.46213286,6.46038977 2.47939202,6.76111986 C2.49227106,6.87000154 2.44501728,6.97728692 2.35602414,7.04121532 L2.51249072,6.95989728 C2.60001245,6.89208829 2.64660208,6.78403602 2.63585859,6.67377826 C2.61885035,6.37140789 2.45908393,6.09519032 2.20557552,5.92986881 C2.11737178,5.86888213 2.00479338,5.85536012 1.90467826,5.89372746 L1.75122066,5.9901044 Z" id="Path" fill="#FFAE40"></path>
                    <path d="M2.82241489,5.30944231 C2.92881522,5.2612313 3.05287935,5.27387925 3.14738392,5.34257188 C3.42304289,5.52271807 3.59630179,5.82368657 3.61377466,6.15274047 C3.62609086,6.26952435 3.57572122,6.3841076 3.48137987,6.45391839 L3.64988233,6.36356501 C3.74301006,6.29256176 3.79395636,6.17924217 3.7852861,6.0623871 C3.76640074,5.73455848 3.5933679,5.43510007 3.31889535,5.25523028 C3.22213865,5.18481452 3.09609404,5.16890217 2.9848994,5.21306538 L2.82241489,5.30944231 Z" id="Path" fill="#FFAE40"></path>
                    <path d="M3.88759116,4.62878022 C4.00300492,4.57726033 4.13707851,4.59102429 4.23964095,4.66492157 C4.53787122,4.85991011 4.72557218,5.18533824 4.74514834,5.5413493 C4.75911304,5.66875471 4.70404284,5.79392659 4.60071765,5.86963323 L4.78426498,5.7732563 C4.88760918,5.69350725 4.94227203,5.56584164 4.92869566,5.43593703 C4.9091195,5.07992597 4.72141854,4.75449783 4.42318828,4.5595093 C4.31805684,4.48430377 4.18171571,4.46838247 4.06211157,4.51734439 L3.88759116,4.62878022 Z" id="Path" fill="#FFAE40"></path>
                    <path d="M4.95577641,3.94811813 C5.08019969,3.89327812 5.22429131,3.90815858 5.33490695,3.98727126 C5.65607134,4.19675856 5.85833033,4.54684758 5.87953098,4.92995814 C5.89448635,5.06857012 5.83350621,5.20446384 5.72005544,5.28534808 L5.9216566,5.1799358 C6.03234476,5.09454685 6.09051464,4.9575489 6.0751142,4.81852231 C6.05459518,4.43596958 5.8535174,4.08599152 5.53349914,3.87583543 C5.42015016,3.79329536 5.27229466,3.77508078 5.14233271,3.82764697 L4.95577641,3.94811813 Z" id="Path" fill="#FFAE40"></path>
                    <g id="Group" opacity="0.1" transform="translate(1.751221, 3.798029)" fill="#000000">
                        <path d="M0,2.19207582 C0.0984206536,2.14727549 0.21328861,2.158773 0.300897254,2.22219361 C0.552436502,2.38756272 0.710912197,2.6623612 0.728171353,2.96309129 C0.741050392,3.07197297 0.693796615,3.17925834 0.60480348,3.24318675 L0.761270051,3.16186871 C0.848791788,3.09405972 0.895381417,2.98600745 0.884637925,2.87574969 C0.867629682,2.57337932 0.707863268,2.29716175 0.454354853,2.13184024 C0.366151114,2.07085355 0.253572712,2.05733154 0.153457599,2.09569889 L0,2.19207582 Z" id="Path"></path>
                        <path d="M1.07119422,1.51141373 C1.17759455,1.46320273 1.30165868,1.47585067 1.39616326,1.54454331 C1.67182223,1.7246895 1.84508113,2.025658 1.862554,2.3547119 C1.8748702,2.47149578 1.82450055,2.58607903 1.73015921,2.65588981 L1.89866167,2.56553644 C1.9917894,2.49453319 2.04273569,2.38121359 2.03406543,2.26435852 C2.01518008,1.93652991 1.84214724,1.63707149 1.56767469,1.45720171 C1.47091799,1.38678594 1.34487338,1.3708736 1.23367874,1.4150368 L1.07119422,1.51141373 Z" id="Path"></path>
                        <path d="M2.1363705,0.830751646 C2.25178425,0.779231756 2.38585784,0.79299572 2.48842029,0.866892996 C2.78665055,1.06188153 2.97435151,1.38730967 2.99392767,1.74332073 C3.00789237,1.87072614 2.95282218,1.99589802 2.84949699,2.07160466 L3.03304432,1.97522772 C3.13638852,1.89547868 3.19105137,1.76781306 3.177475,1.63790846 C3.15789884,1.2818974 2.97019788,0.956469261 2.67196761,0.761480726 C2.56683618,0.6862752 2.43049504,0.670353897 2.31089091,0.719315818 L2.1363705,0.830751646 Z" id="Path"></path>
                        <path d="M3.20455575,0.150089558 C3.32897903,0.0952495478 3.47307065,0.11013001 3.58368629,0.189242687 C3.90485068,0.398729984 4.10710967,0.748819011 4.12831032,1.13192956 C4.14326568,1.27054154 4.08228555,1.40643526 3.96883477,1.4873195 L4.17043593,1.38190723 C4.2811241,1.29651828 4.33929397,1.15952033 4.32389353,1.02049373 C4.30337452,0.637941002 4.10229674,0.287962946 3.78227848,0.0778068584 C3.6689295,-0.00473321514 3.52107399,-0.0229477899 3.39111205,0.029618392 L3.20455575,0.150089558 Z" id="Path"></path>
                    </g>
                </g>
            </g>
        </g>
        <g id="freepik--Headphones--inject-3" transform="translate(31.248496, 0.000000)" fill-rule="nonzero">
            <g id="freepik--headphones--inject-3" transform="translate(0.567130, 0.500782)">
                <path d="M61.1754617,47.8290284 C61.064361,47.8740044 60.9532602,47.9159819 60.8481649,47.9699531 C60.7430696,48.0239242 60.6770097,48.059905 60.5959362,48.104881 C60.5148627,48.1498569 60.391751,48.2218184 60.2956639,48.2847848 C60.1995768,48.3477511 60.1365196,48.3957255 60.0584488,48.4556934 C59.980378,48.5156614 59.8752827,48.5996165 59.785201,48.6775748 C59.6951193,48.7555332 59.6410703,48.8065059 59.5720077,48.8754691 C59.502945,48.9444322 59.4038552,49.0463777 59.3227817,49.1363296 C59.2417081,49.2262815 59.1936646,49.2892479 59.1306074,49.3672062 C59.0675502,49.4451645 58.9804712,49.5651004 58.9084059,49.6670459 C58.8363405,49.7689914 58.7973051,49.8289594 58.7462589,49.9129145 L58.7102262,49.9728825 C58.6531744,50.0688312 58.5991254,50.1677783 58.5480791,50.2727222 C58.5300628,50.3027062 58.5150492,50.3326901 58.5000356,50.3626741 C58.4579975,50.4436308 58.4159593,50.527586 58.3799267,50.6115411 C58.343894,50.6954962 58.3138668,50.7614609 58.2838395,50.8364209 C58.2538123,50.9113808 58.2418014,50.9293712 58.2237851,50.9803439 L58.1697361,51.1152718 C58.1337034,51.2112205 58.1006734,51.3101676 58.0706462,51.4151115 C58.040619,51.5200555 58.0135945,51.5890186 57.9895727,51.6759721 C57.9445318,51.8348872 57.899491,51.9968006 57.8634583,52.1647109 C57.8354329,52.276651 57.8114111,52.3905901 57.791393,52.5065282 C57.791393,52.5694945 57.7673712,52.6294624 57.7553603,52.6954272 C57.7433494,52.7613919 57.7313385,52.8303551 57.7223303,52.9023166 C57.6953058,53.0702268 57.6772895,53.2471323 57.6592732,53.4240377 C57.6592732,53.5079928 57.6382541,53.5889496 57.6322487,53.6729047 C57.6322487,53.7058871 57.6322487,53.735871 57.6322487,53.7688534 C57.6112296,54.0686931 57.5992187,54.3505425 57.5992187,54.6533806 C57.6079083,55.8742055 57.7539563,57.0901891 58.0346135,58.2784429 C59.1516265,63.1808225 62.3435209,68.2481139 66.2470607,71.147564 C66.7043495,71.4931158 67.1816065,71.8114962 67.6763568,72.1010544 L67.880542,72.2119951 C67.9946454,72.2749614 68.1087489,72.3409262 68.2228524,72.3978957 L68.4840893,72.5268268 L68.7663452,72.6617547 L69.0516039,72.784689 L69.3008299,72.8866345 C69.3999198,72.9256136 69.4960069,72.9615944 69.6011022,72.9945768 L69.8383173,73.0755335 L70.123576,73.1654854 L70.3758047,73.2314502 L70.6340389,73.2974149 L70.9763493,73.3633796 L71.1354936,73.3933636 L71.2706161,73.4083556 L73.3184732,72.2329839 C72.0494113,72.0296375 70.831266,71.5848152 69.7302193,70.9226842 C64.1451547,67.7084024 59.6410703,59.8825855 59.6410703,53.4660153 C59.6410703,50.8604081 60.3857456,48.8874626 61.6408838,47.6701133 L61.442704,47.7270829 C61.3496196,47.7570669 61.2625407,47.7930476 61.1754617,47.8290284 Z" id="Path" fill="#263238"></path>
                <path d="M62.9831009,45.6581888 C62.6712058,45.7669059 62.3697219,45.9033818 62.082284,46.0659708 L60.0434352,47.2413425 C60.0434352,47.2413425 60.0434352,47.2413425 60.0434352,47.2413425 C60.9410098,46.7343155 61.9519588,46.4610616 62.9831009,46.4467673 L62.9831009,45.6581888 Z" id="Path" fill="#37474F"></path>
                <path d="M71.1384963,73.3933636 L70.979352,73.3633796 L70.6370416,73.2974149 L70.3788074,73.2314502 L70.210655,73.1894726 L70.1265787,73.1654854 L69.8503282,73.0755335 L69.6131131,72.9945768 L69.3128408,72.8866345 L69.0636148,72.784689 L68.7783561,72.6617547 L68.4961002,72.5268268 L68.2348633,72.3978957 C68.1207598,72.3409262 68.0036536,72.2749614 67.8865474,72.2089967 C67.8234902,72.1730159 67.7574303,72.1430319 67.6913704,72.1040528 C67.2144579,71.8237307 66.7533442,71.5174318 66.3101179,71.1865432 C65.0389042,70.2408555 63.8865466,69.1455283 62.8780056,67.924287 C62.0068663,66.8761509 61.2254143,65.7568139 60.5418872,64.5780756 C59.4128146,62.6453666 58.5722051,60.5584866 58.0466244,58.3833868 L58.0286081,58.2814413 C57.7483223,57.0951542 57.6022763,55.8811987 57.5932133,54.6623758 C57.5932133,54.3805265 57.5932133,54.1076723 57.6232405,53.8378165 C57.6232405,53.7988374 57.6232405,53.7598582 57.6232405,53.7208791 C57.6217503,53.693914 57.6217503,53.6668874 57.6232405,53.6399223 C57.6412568,53.4150425 57.6652786,53.1931611 57.6983086,52.9772765 L57.7163249,52.8393503 C57.7163249,52.7673887 57.7433494,52.701424 57.7553603,52.6294624 C57.7673712,52.5575009 57.7943957,52.4315682 57.8154148,52.3296227 C57.8364338,52.2276772 57.8574529,52.1197349 57.8814747,52.029783 C57.9054964,51.9398311 57.9415291,51.8138984 57.9745591,51.7059561 C57.9745591,51.6639785 57.9955781,51.622001 58.007589,51.5830218 C58.0195999,51.5440426 58.007589,51.5500394 58.0226026,51.5350474 C58.0496271,51.4480939 58.0766516,51.358142 58.1066789,51.2711885 C58.1367061,51.184235 58.1847497,51.0672975 58.2267878,50.9713487 C58.2688259,50.8754 58.3288804,50.7104882 58.3889348,50.5845555 C58.4489893,50.4586228 58.4760138,50.4106485 58.5210546,50.3236949 L58.5751037,50.2217494 C58.6231472,50.1317975 58.6741935,50.044844 58.7252398,49.9578905 C58.7762861,49.8709369 58.8243297,49.8049722 58.8753759,49.7300123 L58.9444386,49.6310652 C58.9804712,49.5740956 59.0195066,49.5201245 59.058542,49.4691517 L59.1516265,49.3522142 C59.178651,49.3192318 59.2026727,49.2832511 59.2327,49.2502687 L59.3978497,49.0613697 L59.4549015,49.0044001 C59.5239641,48.9324386 59.5930267,48.8604771 59.6680948,48.7915139 L59.6680948,48.7915139 C59.7011247,48.76153 59.7401601,48.7345444 59.7731901,48.7075588 C59.8632718,48.6296005 59.9533535,48.5546405 60.0464379,48.4856774 C60.1395223,48.4167143 60.2025795,48.3687399 60.283653,48.3147688 C60.3647265,48.2607976 60.4818327,48.1918345 60.5839253,48.1348649 C60.6860179,48.0778954 60.749075,48.0419146 60.836154,47.999937 C60.923233,47.9579595 61.0523501,47.9039883 61.1634508,47.8590124 C61.2745516,47.8140364 61.3376087,47.7870508 61.4276904,47.7570669 C61.5177721,47.7270829 61.562813,47.7150893 61.6318756,47.6941005 L61.7850145,47.6551214 C61.8750961,47.6341326 61.9651778,47.607147 62.0582622,47.5891566 C62.1513466,47.5711662 62.3225019,47.5471791 62.4546217,47.5321871 C62.5867415,47.5171951 62.6317823,47.5052015 62.7248667,47.4992047 C62.8179511,47.4932079 62.8870138,47.4992047 62.97109,47.4992047 L62.97109,46.4917432 C61.9399479,46.5060376 60.9289989,46.7792915 60.0314243,47.2863185 L60.0314243,47.2863185 C59.9053099,47.3612784 59.7821983,47.4392368 59.6590866,47.5231919 L59.5960294,47.5651694 C59.2451115,47.8148437 58.9219779,48.1013248 58.6321554,48.4197127 L58.5330655,48.527655 C58.4459866,48.6266021 58.3619103,48.7285476 58.2778341,48.8274947 L58.2057687,48.9324386 C58.0666874,49.1195315 57.9373974,49.3136876 57.8184175,49.5141277 C57.7763794,49.5890876 57.7313385,49.6640475 57.6893004,49.7420059 C57.6472623,49.8199642 57.5842051,49.9399001 57.5331588,50.0418456 C57.4821125,50.1437911 57.4370717,50.248735 57.3890281,50.3416853 C57.3409845,50.4346356 57.2989464,50.5515731 57.2569083,50.6595154 C57.1908484,50.8274257 57.1307939,51.0013327 57.0737422,51.1782382 C57.0497204,51.2621933 57.0226959,51.3491468 56.9986741,51.4361003 C56.956636,51.5860202 56.9176006,51.7359401 56.8785652,51.8948551 C56.8605489,51.9728134 56.8425325,52.0477734 56.8275189,52.1257317 C56.7774735,52.3536099 56.7354354,52.5874849 56.7014046,52.8273567 C56.7014046,52.8873246 56.6863909,52.9472926 56.6803855,53.0042621 C56.653361,53.2081531 56.6323419,53.4120441 56.6173283,53.6039416 C56.6173283,53.6789015 56.6173283,53.7538614 56.6023147,53.8288214 C56.5842984,54.0956787 56.5752902,54.3655345 56.5752902,54.641387 C56.5998008,56.4201303 56.884049,58.1857888 57.4190553,59.8825855 C57.6937727,60.781326 58.0206208,61.6633455 58.397943,62.5241735 C58.5981245,62.9599405 58.7983061,63.3907103 58.9984876,63.8164827 C59.6481914,65.0966084 60.4024249,66.321099 61.2535325,67.4775258 C62.9440655,69.7712997 64.9829144,71.7172595 67.1749021,72.9795848 C68.0452373,73.4969805 68.9787818,73.9000939 69.9524208,74.1789437 L71.261608,73.4293444 L71.1384963,73.3933636 Z" id="Path" fill="#455A64"></path>
                <path d="M81.4138142,63.2138048 C81.4138142,57.3489398 77.2910756,50.218751 72.204463,47.2863185 C69.6521485,45.8171038 67.3460573,45.6821759 65.6795461,46.6506583 C65.1720859,46.950498 61.7760063,48.9024546 61.2565352,49.1932992 C59.5810158,50.1497879 58.5540846,52.2126852 58.5540846,55.154113 C58.5540846,61.018978 62.6768232,68.1491668 67.7634358,71.0815993 C70.3097448,72.550814 72.615836,72.6857418 74.2823472,71.7202579 C74.7928101,71.4204182 78.2159143,69.4594664 78.7293799,69.162625 C80.3838802,68.2031379 81.4138142,66.143239 81.4138142,63.2138048 Z" id="Path" fill="#FFAE40"></path>
                <path d="M81.4138142,63.2138048 C81.4138142,57.3489398 77.2910756,50.218751 72.204463,47.2863185 C69.6521485,45.8171038 67.3460573,45.6821759 65.6795461,46.6506583 C65.1720859,46.950498 61.7760063,48.9024546 61.2565352,49.1932992 C59.5810158,50.1497879 58.5540846,52.2126852 58.5540846,55.154113 C58.5540846,61.018978 62.6768232,68.1491668 67.7634358,71.0815993 C70.3097448,72.550814 72.615836,72.6857418 74.2823472,71.7202579 C74.7928101,71.4204182 78.2159143,69.4594664 78.7293799,69.162625 C80.3838802,68.2031379 81.4138142,66.143239 81.4138142,63.2138048 Z" id="Path" fill="#000000" opacity="0.3"></path>
                <path d="M67.7484222,49.8439514 C72.8320321,52.7763839 76.9547706,59.909571 76.9547706,65.7714377 C76.9547706,71.6333044 72.8530511,74.0140318 67.7484222,71.0815993 C62.6437932,68.1491668 58.539071,61.018978 58.539071,55.154113 C58.539071,49.2892479 62.667815,46.9115188 67.7484222,49.8439514 Z" id="Path" fill="#FFAE40"></path>
                <path d="M71.651962,73.4533316 L71.6970028,73.4533316 C71.8531444,73.4533316 71.9972751,73.4713219 72.1594221,73.4743203 L72.2344902,73.4743203 C72.4552898,73.4751438 72.6759234,73.4621251 72.8950892,73.4353412 L72.919111,73.4353412 C73.1029734,73.4111586 73.2854016,73.3771277 73.4656066,73.3333957 C73.5406747,73.3184037 73.6187455,73.3004133 73.6938135,73.2794245 C73.8349415,73.2404453 73.9760695,73.1954694 74.1141948,73.1444966 C74.25232,73.0935239 74.3213826,73.0605415 74.414467,73.0125672 C74.4655133,72.9915784 74.5105542,72.9675912 74.5585977,72.943604 C75.0003265,72.7204502 75.4053543,72.4312725 75.7596869,72.0860624 C74.9602796,72.3062395 74.1234722,72.3562938 73.3034596,72.2329839 L71.2556025,73.4083556 C71.3997332,73.426346 71.5258476,73.4443364 71.651962,73.4533316 Z" id="Path" fill="#263238"></path>
                <path d="M70.2376795,48.104881 C70.2899229,48.891026 70.6297656,49.6305598 71.1925454,50.1827703 C75.5795235,54.2096178 78.7864316,60.7461239 78.7864316,66.2841637 C78.7864316,70.3140096 77.0928959,73.1804774 74.3243854,74.1429629 L74.3243854,74.1429629 C74.6781328,74.0278546 75.0176207,73.8729412 75.336303,73.6812097 L77.3751518,72.505838 C79.5431178,71.2585047 80.8342886,68.6079215 80.8342886,65.1027951 C80.8342886,59.5677538 77.6243778,53.0282493 73.2373997,49.0044001 C72.6762433,48.4510529 72.3366989,47.7121682 72.2825338,46.9265108 L72.2825338,38.7678718 L70.2376795,39.9492403 L69.2287646,39.3675513 L70.2376795,39.9492403 L70.2376795,48.104881 Z" id="Path" fill="#37474F"></path>
                <path d="M71.1925454,50.1827703 C70.6297656,49.6305598 70.2899229,48.891026 70.2376795,48.104881 L70.2376795,39.9492403 L69.2287646,39.3675513 L69.2287646,48.5936197 C69.2313968,48.7165918 69.24547,48.8390533 69.2708027,48.9594242 L69.288819,49.0493761 C69.317523,49.1776035 69.3546366,49.3038082 69.3999198,49.4271742 C69.4731254,49.6183305 69.5625305,49.8029016 69.6671621,49.9788793 L69.7512384,50.1018135 C69.8293146,50.2259406 69.917706,50.3432915 70.015478,50.452626 C70.0749498,50.5210132 70.1391664,50.5851373 70.2076522,50.6445234 L70.2076522,50.6445234 C70.4508728,50.8574097 70.6880879,51.0792911 70.9223003,51.3041708 L71.1084691,51.4870731 C71.3126543,51.6909641 71.5138367,51.8978535 71.7090137,52.1137381 L71.7990954,52.2066884 C72.0212969,52.4495586 72.2374929,52.6984256 72.453689,52.9562877 L72.615836,53.154182 C72.7929967,53.3700666 72.9671546,53.591948 73.1353071,53.8138294 L73.2584187,53.9757428 C73.4596012,54.2426002 73.6547781,54.5184527 73.8439497,54.7943053 L73.9760695,54.9951979 C74.1322111,55.2260745 74.2763418,55.4629479 74.4294807,55.6998213 L74.555595,55.9037123 C74.7327557,56.203552 74.9009082,56.4854013 75.0660579,56.7822427 L75.1591423,56.9591481 C75.2942649,57.2080151 75.4263847,57.4598805 75.552499,57.7147442 L75.6696052,57.9516176 C75.8177396,58.2534563 75.9588675,58.5592928 76.0929892,58.8691272 C76.1080028,58.9111047 76.1260191,58.9500839 76.1410327,58.9920615 C76.2581389,59.2649156 76.3692397,59.5407682 76.4773377,59.8196191 C76.5073649,59.9035742 76.5403949,59.984531 76.5704221,60.0684861 C76.6875283,60.3683258 76.798629,60.7011479 76.8977189,61.0159796 C76.9968088,61.3308114 77.0898932,61.6516399 77.1739694,61.96947 L77.2280184,62.173361 C77.3060892,62.4732007 77.3781546,62.7910308 77.4412117,63.0998657 L77.4682362,63.2557824 C77.5242871,63.5396307 77.5723306,63.82148 77.6123669,64.1013304 C77.6123669,64.1523032 77.6273806,64.2062743 77.6363887,64.2572471 C77.6754241,64.5570868 77.7084541,64.8569266 77.7294731,65.1567663 C77.7294731,65.222731 77.7294731,65.2886958 77.7444868,65.3546605 C77.7625031,65.6545002 77.7775167,65.9723303 77.7775167,66.2751685 C77.7775167,68.0742068 77.4201927,69.5734055 76.7806127,70.7457788 C76.6434328,70.9967696 76.4878686,71.2372961 76.3151906,71.4653942 C76.2311144,71.5763349 76.1440354,71.6842772 76.0539538,71.7862227 C75.9638721,71.8881682 75.8707877,71.9841169 75.7747005,72.0860624 C75.4203679,72.4312725 75.0153401,72.7204502 74.5736114,72.943604 C74.5285705,72.9675912 74.4805269,72.9915784 74.4294807,73.0125672 C74.3303908,73.0605415 74.2282982,73.1055175 74.1292084,73.1444966 C74.0301185,73.1834758 73.8709742,73.2344486 73.7418571,73.2704293 L73.7088272,73.2704293 C73.6337591,73.2914181 73.558691,73.3094085 73.4806202,73.3244005 L73.3454977,73.3603812 C73.2103752,73.3873668 73.0722499,73.4083556 72.9341246,73.426346 L72.9101029,73.426346 C72.690937,73.4531299 72.4703034,73.4661486 72.2495038,73.4653251 L72.0783486,73.4653251 C71.9582397,73.4653251 71.8351281,73.4653251 71.7120164,73.4443364 L71.651962,73.4443364 C71.5258476,73.4443364 71.3997332,73.4203492 71.2706161,73.4023588 L69.961429,74.1519581 C70.6878272,74.3611444 71.4394738,74.4700972 72.1954548,74.475785 C72.2975474,74.475785 72.3966372,74.475785 72.4957271,74.460793 C72.594817,74.4458011 72.7689749,74.460793 72.8950892,74.4398043 L73.1262989,74.4068219 C73.2734323,74.3858331 73.4265712,74.3648443 73.5556883,74.3378588 C73.6247509,74.3378588 73.6938135,74.3078748 73.7628762,74.2898844 L73.8469524,74.2658972 C73.9760695,74.2329148 74.1051866,74.2029309 74.2313009,74.1609533 L74.3213826,74.1339677 C77.0898932,73.1804774 78.783431,70.3050144 78.783431,66.2751685 C78.7864316,60.7461239 75.5795235,54.2096178 71.1925454,50.1827703 Z" id="Path" fill="#455A64"></path>
                <path d="M65.6465161,47.6611182 L65.6885542,47.6431278 C65.713042,47.6341795 65.7362582,47.6220841 65.7576169,47.607147 L67.8054739,46.4257785 C68.0738889,46.2550117 68.2271538,45.951225 68.204836,45.6342016 L68.204836,36.4081332 L66.1599817,37.5895017 L66.1599817,46.8155701 C66.1898737,47.1786228 65.9827256,47.5197433 65.6465161,47.6611182 L65.6465161,47.6611182 Z" id="Path" fill="#37474F"></path>
                <path d="M63.1782779,46.4437689 C63.6698752,46.4457604 64.1602958,46.491922 64.6436067,46.5816951 C64.7643237,46.6145301 64.8934874,46.587594 64.9909537,46.5092585 C65.08842,46.430923 65.1423764,46.3106822 65.1360532,46.1859067 L65.1360532,45.2683971 C64.4016062,45.277018 63.6738278,45.4087821 62.9831009,45.6581888 L62.9831009,46.4557624 C63.0491608,46.452764 63.112218,46.4437689 63.1782779,46.4437689 Z" id="Path" fill="#37474F"></path>
                <path d="M63.4365121,47.4572271 C63.6797389,47.4662215 63.9223072,47.4882414 64.163171,47.5231919 C64.3973834,47.5591726 64.6376012,47.607147 64.8778191,47.6671149 L64.9228599,47.6671149 L64.9468817,47.6671149 L64.9468817,47.6671149 C65.0239189,47.6856824 65.1021905,47.6987088 65.1810941,47.7060941 L65.2021131,47.7060941 C65.2670296,47.7121746 65.3323736,47.7121746 65.3972901,47.7060941 L65.4333228,47.7060941 C65.4945122,47.6960679 65.5547705,47.681025 65.6134862,47.6611182 L65.6134862,47.6611182 C65.9496956,47.5197433 66.1568437,47.1786228 66.1269518,46.8155701 L66.1269518,37.5895017 L66.1269518,37.5895017 L65.1180369,36.9898222 L65.1180369,46.1709147 C65.1243601,46.2956902 65.0704037,46.415931 64.9729374,46.4942665 C64.875471,46.572602 64.7463074,46.5995381 64.6255903,46.5667031 C64.1422795,46.47693 63.6518589,46.4307684 63.1602615,46.4287769 C63.0942016,46.4287769 63.0311445,46.4287769 62.9650846,46.4287769 L62.9650846,47.4362384 C63.0371499,47.4362384 63.1062125,47.4362384 63.1782779,47.4362384 C63.2503432,47.4362384 63.3554385,47.4542287 63.4365121,47.4572271 Z" id="Path" fill="#455A64"></path>
                <path d="M80.4709592,68.7908238 C80.4709592,60.1254556 74.3784344,49.6010812 66.8626189,45.2564035 C63.1092153,43.0915607 59.7131356,42.8876697 57.2539056,44.3029132 L53.1431779,46.6716471 C50.6869506,48.0928874 49.16457,51.1302638 49.16457,55.4599495 C49.16457,64.1253176 55.2570948,74.6496921 62.7699076,78.9943697 C66.5233112,81.1562142 69.9193908,81.3631036 72.3786209,79.9478601 L76.4863459,77.5731294 C78.9485786,76.1608843 80.4709592,73.1205095 80.4709592,68.7908238 Z" id="Path" fill="#FFAE40"></path>
                <ellipse id="Oval" fill="#000000" opacity="0.1" transform="translate(62.770164, 63.302915) rotate(-30.000000) translate(-62.770164, -63.302915) " cx="62.7701637" cy="63.302915" rx="11.1060496" ry="19.2236543"></ellipse>
                <path d="M76.3842533,71.1505624 C76.3842533,62.4851943 70.2917285,51.9608199 62.775913,47.6161422 C59.0165039,45.448301 55.6144189,45.2474083 53.1521861,46.6716471 L51.1163399,47.8440204 C48.6481017,49.2622623 47.1227184,52.3056355 47.1227184,56.641318 C47.1227184,65.3066861 53.2152432,75.8310606 60.728056,80.1757383 C64.4874651,82.3405811 67.8895501,82.5444721 70.3517829,81.1232318 L72.39964,79.9418633 C74.85887,78.5236214 76.3842533,75.4742513 76.3842533,71.1505624 Z" id="Path" fill="#F0F0F0"></path>
                <path d="M60.728056,48.7885155 C68.2348633,53.1211996 74.3363962,63.6575676 74.3363962,72.3229358 C74.3363962,80.9883039 68.2438714,84.4994271 60.728056,80.1667431 C53.2122405,75.834059 47.1227184,65.297691 47.1227184,56.6323228 C47.1227184,47.9669547 53.2152432,44.4648267 60.728056,48.7885155 Z" id="Path" fill="#E0E0E0"></path>
                <path d="M75.336303,72.331931 C75.336303,63.3607263 69.0065631,52.4135778 61.2235053,47.9279755 C58.9324277,46.6056823 56.7194209,45.9370397 54.6415366,45.9370397 C53.2208834,45.9173715 51.820974,46.2787526 50.5878607,46.9834804 C49.9092453,47.3792688 47.1647566,48.9474306 46.4681249,49.3522142 C43.6755925,50.9863407 42.012084,54.422504 42.012084,59.0040551 C42.012084,67.9752597 48.341824,78.9224082 56.1248818,83.4080105 C58.4159593,84.7303037 60.6289661,85.3989463 62.7068504,85.3989463 C64.137054,85.4186761 65.5459949,85.0519261 66.7845481,84.3375137 C67.4511526,83.9447236 70.1626114,82.3975506 70.8532377,81.9987638 C73.6637863,80.3706341 75.336303,76.928474 75.336303,72.331931 Z" id="Path" fill="#455A64"></path>
                <path d="M62.7068504,85.3989463 C60.6319689,85.3989463 58.4159593,84.7303037 56.1248818,83.4080105 C48.3448267,78.9104146 42.012084,67.9752597 42.012084,59.0040551 C42.012084,52.497533 45.3631228,48.2967784 50.5488253,48.2967784 C52.6267096,48.2967784 54.8397163,48.965421 57.1307939,50.2877142 C64.910849,54.7853101 71.2435916,65.720465 71.2435916,74.6916696 C71.2435916,81.1951933 67.8925529,85.3989463 62.7068504,85.3989463 Z" id="Path" fill="#37474F"></path>
                <path d="M59.6650921,76.1129099 C58.4954558,76.0776898 57.3559432,75.7342597 56.3620969,75.117442 C52.4765734,72.8776393 49.3147062,67.411561 49.3147062,62.9289571 C49.3147062,59.6816928 50.9902256,57.5828148 53.5785727,57.5828148 C54.7426863,57.6204515 55.876492,57.9626881 56.8665543,58.5752843 C60.7520778,60.8180854 63.9140451,66.2841637 63.9140451,70.7667676 C63.9289586,74.0140318 62.2534392,76.1129099 59.6650921,76.1129099 Z" id="Path" fill="#263238"></path>
                <path d="M42.3093536,91.3657569 C42.3093536,82.3945522 35.9796137,71.4474038 28.1965559,66.958803 C25.9054783,65.6395082 23.6924715,64.9708656 21.61759,64.9708656 C20.1968482,64.9504612 18.7967474,65.3118917 17.5639141,66.0173063 C16.8852987,66.4130947 14.1378072,67.9812565 13.4441782,68.3860402 C10.6486432,70.0201667 8.98513468,73.45633 8.98513468,78.0348826 C8.98513468,87.0060873 15.3148746,97.9562341 23.0979324,102.441836 C25.38901,103.76413 27.6020168,104.432772 29.6768983,104.432772 C31.1092919,104.449854 32.5195338,104.078891 33.7575987,103.359346 C34.427206,102.966556 37.1386647,101.419383 37.8262883,101.020596 C40.6368369,99.40446 42.3093536,95.9622999 42.3093536,91.3657569 Z" id="Path" fill="#455A64"></path>
                <path d="M29.679901,104.432772 C27.6050195,104.432772 25.3920127,103.76413 23.1009351,102.441836 C15.3178773,97.9442405 8.9881374,87.0060873 8.9881374,78.0348826 C8.9881374,71.5313589 12.3391762,67.3306043 17.5278814,67.3306043 C19.6027629,67.3306043 21.8157697,67.9992469 24.1068473,69.3185417 C31.8869024,73.8161376 38.219645,84.7542909 38.219645,93.7254956 C38.2166423,100.229019 34.8656035,104.432772 29.679901,104.432772 Z" id="Path" fill="#37474F"></path>
                <path d="M37.2107301,93.7254956 C37.2107301,85.0601274 31.1182053,74.535753 23.6023898,70.1910753 C19.8429807,68.0232341 16.4408957,67.8193431 13.9936765,69.2435818 L11.9578304,70.4189535 C9.49259485,71.8371954 7.96420888,74.8775703 7.96420888,79.2132527 C7.96420888,87.8786209 14.0567337,98.4029953 21.5725491,102.747673 C25.3319582,104.915514 28.7310406,105.116407 31.1812625,103.698165 L33.2291195,102.516796 C35.6883496,101.095556 37.2107301,98.0551812 37.2107301,93.7254956 Z" id="Path" fill="#F0F0F0"></path>
                <path d="M21.5575355,71.3694454 C29.0643428,75.7021295 35.1658758,86.2384976 35.1658758,94.9038657 C35.1658758,103.569234 29.073351,107.080357 21.5575355,102.759667 C14.0417201,98.4389761 7.94919527,87.8906145 7.94919527,79.2252463 C7.94919527,70.5598782 14.0417201,67.0367614 21.5575355,71.3694454 Z" id="Path" fill="#E0E0E0"></path>
                <path d="M35.1658758,94.9038657 C35.1658758,86.2384976 29.073351,75.7141231 21.5575355,71.3694454 C17.8041319,69.2046026 14.4080523,69.0007116 11.9488222,70.4159551 L7.83809452,72.7756938 C5.37886445,74.1969341 3.85648393,77.2373089 3.85648393,81.5639962 C3.85648393,90.2293643 9.94900873,100.753739 17.4648242,105.098416 C21.2152251,107.263259 24.6113047,107.46715 27.0735375,106.051907 L31.1782598,103.686171 C33.6404925,102.276925 35.1658758,99.2365498 35.1658758,94.9038657 Z" id="Path" fill="#FFAE40"></path>
                <path d="M17.4648242,73.7291841 C24.9716315,78.0618682 31.0701617,88.5982362 31.0701617,97.2636044 C31.0701617,105.928972 24.9806397,109.440096 17.4648242,105.107412 C9.94900873,100.774728 3.85648393,90.2383595 3.85648393,81.5729914 C3.85648393,72.9076232 9.94900873,69.3965 17.4648242,73.7291841 Z" id="Path" fill="#000000" opacity="0.1"></path>
                <path d="M7.69396382,78.6615476 C7.58286307,78.7035252 7.47176233,78.7485011 7.3636643,78.7994739 C7.25556628,78.8504467 7.19551182,78.8894258 7.1144383,78.9374002 C7.03336478,78.9853745 6.91025314,79.0543377 6.81416601,79.117304 C6.71807887,79.1802704 6.65502169,79.2282447 6.5769509,79.2882127 C6.4988801,79.3481806 6.3937848,79.4291373 6.30370311,79.5070957 L6.08750706,79.7079883 C6.00343082,79.7919434 5.9223573,79.8788969 5.84128378,79.9688488 C5.76021026,80.0588008 5.70916397,80.1217671 5.64610679,80.1997254 C5.58304961,80.2776838 5.49897337,80.3976197 5.42690802,80.4995652 C5.35484267,80.6015107 5.31580727,80.664477 5.26476098,80.7484321 L5.22872831,80.8084001 C5.17167657,80.9043488 5.11762756,81.0002975 5.06357855,81.1082398 L5.0185377,81.1981917 C4.97649958,81.2791485 4.93446146,81.3601052 4.89542606,81.4440603 C4.85639067,81.5280154 4.83236888,81.5939802 4.80234165,81.6689401 C4.77231442,81.7439 4.76030353,81.7648888 4.74228719,81.8128632 L4.68823818,81.9507894 C4.65220551,82.0467382 4.61917555,82.1456853 4.5861456,82.2506292 C4.55311565,82.3555731 4.53209659,82.4245362 4.50807481,82.5114897 C4.46003124,82.6694053 4.41799312,82.8313188 4.38196044,82.9972301 C4.35493594,83.1111692 4.33091415,83.2251083 4.30989509,83.3420458 L4.27386242,83.5279464 C4.27386242,83.5969096 4.24984064,83.6658727 4.24083247,83.7348358 C4.21380796,83.9057445 4.19579162,84.0796515 4.17777529,84.256557 C4.17777529,84.3405121 4.15675623,84.4214688 4.15075078,84.5084223 C4.15075078,84.5384063 4.15075078,84.5713887 4.15075078,84.604371 C4.12973172,84.8892188 4.11772083,85.1830617 4.11772083,85.4888982 C4.12641045,86.7097231 4.27245842,87.9257068 4.55311565,89.1139605 C5.67613402,94.0253353 8.87103121,99.0926267 12.7805764,101.992077 C13.2393089,102.335598 13.7164484,102.6539 14.2098726,102.945567 L14.4140577,103.056508 L14.7563681,103.242409 L15.017605,103.37134 L15.299861,103.503269 C15.3959481,103.548245 15.4890325,103.587224 15.6001333,103.626203 C15.711234,103.665183 15.765283,103.698165 15.8493593,103.728149 L16.1496316,103.83909 L16.3838439,103.920046 L16.6841162,104.007 L16.936345,104.075963 L17.1945791,104.138929 C17.3086826,104.165915 17.4227861,104.186904 17.5368895,104.207892 L17.6930311,104.237876 L17.8281537,104.252868 L19.8309699,103.059506 C18.5563564,102.85941 17.3326866,102.414433 16.2277024,101.749207 C10.6516459,98.5349248 6.1325479,90.7240999 6.1325479,84.2925377 C6.1325479,81.6899289 6.87722319,79.7169835 8.13236137,78.4996342 C8.06630146,78.5176246 7.99723884,78.5326165 7.93418166,78.5536053 L7.69396382,78.6615476 Z" id="Path" fill="#263238"></path>
                <path d="M9.49559757,76.490708 C9.18429186,76.59968 8.8829159,76.7351038 8.5947807,76.8954916 L6.55593184,78.0708634 C7.45461677,77.5680223 8.46550025,77.2989105 9.49559757,77.2882817 L9.49559757,76.490708 Z" id="Path" fill="#37474F"></path>
                <path d="M17.6449876,104.225883 L17.488846,104.195899 C17.3747425,104.17491 17.2636418,104.153921 17.1465356,104.126936 C17.0294294,104.09995 16.9753804,104.084958 16.8883014,104.063969 L16.7171462,104.021992 L16.6360727,103.995006 L16.3358004,103.908053 L16.0955825,103.827096 L15.7953103,103.716155 C15.711234,103.686171 15.6301605,103.650191 15.5460843,103.61421 L15.245812,103.494274 L14.963556,103.359346 L14.7023191,103.230415 L14.3540033,103.041516 L14.1588263,102.936572 C13.6825775,102.655193 13.2215198,102.348931 12.7775737,102.019062 C11.5063601,101.073375 10.3540024,99.9780475 9.34546143,98.7568062 C8.47817885,97.7084402 7.70073613,96.5890911 7.02135389,95.4105948 C5.88775957,93.4726808 5.04407551,91.3796411 4.51708298,89.1979157 C4.51708298,89.1649333 4.51708298,89.1319509 4.49606391,89.0959702 C4.22712039,87.9093463 4.09116231,86.6965371 4.09069632,85.479903 C4.09069632,85.1980537 4.09069632,84.9251995 4.12072355,84.6553438 C4.12072355,84.6163646 4.12072355,84.5743871 4.12072355,84.5354079 C4.11934594,84.5084399 4.11934594,84.4814192 4.12072355,84.4544512 C4.13873989,84.2295714 4.16276167,84.0106884 4.19579162,83.7948038 L4.21380796,83.6568775 C4.21380796,83.584916 4.24083247,83.5159528 4.25284336,83.4469897 C4.26485425,83.3780265 4.29187876,83.2490955 4.30989509,83.14715 C4.32791143,83.0452045 4.35193321,82.9372621 4.37895772,82.8473102 C4.40598223,82.7573583 4.43901218,82.6284272 4.46903941,82.5204849 L4.50507208,82.400549 C4.5064375,82.3845866 4.5064375,82.3685371 4.50507208,82.3525747 C4.53509931,82.2626228 4.56212382,82.1756692 4.59215105,82.0887157 C4.62217828,82.0017622 4.67022184,81.8818263 4.70925724,81.788876 C4.74829264,81.6959257 4.81435254,81.5280154 4.874407,81.4050811 C4.93446146,81.2821469 4.96148597,81.2311741 5.00652681,81.1442206 L5.06057582,81.0392767 C5.10861939,80.9523231 5.15966568,80.8623712 5.21071197,80.7784161 C5.26175826,80.694461 5.30980183,80.6254978 5.36084812,80.5505379 L5.42690802,80.4485924 L5.59205778,80.271687 L5.68213947,80.1577479 C5.7121667,80.1247655 5.73618848,80.0887847 5.76621571,80.0558024 C5.79624294,80.02282 5.87431373,79.9298697 5.93136547,79.8669033 L5.98541448,79.8099338 L6.19860781,79.5970476 L6.19860781,79.5970476 C6.23163776,79.5670636 6.27067316,79.5430764 6.30370311,79.5130925 C6.3937848,79.4351341 6.48386649,79.3631726 6.5769509,79.2942095 C6.67003531,79.2252463 6.73309249,79.177272 6.81416601,79.1233008 C6.89523953,79.0693297 7.01234572,79.0003665 7.1144383,78.943397 C7.21653088,78.8864274 7.27958806,78.8474483 7.3636643,78.8054707 C7.44774054,78.7634931 7.58286307,78.709522 7.69396382,78.6675444 L7.95820344,78.5626005 L8.1623886,78.5026326 L8.29450841,78.4726486 C8.38459009,78.4486614 8.47467178,78.4246742 8.56775619,78.4066839 C8.6608406,78.3886935 8.82899308,78.3647063 8.96411562,78.3497143 C9.0541973,78.3497143 9.14127627,78.3227287 9.23436068,78.3137335 C9.32744509,78.3047384 9.39650772,78.3137335 9.48058396,78.3137335 L9.48058396,77.3062721 C8.4494419,77.3205664 7.43849284,77.5938203 6.54091822,78.1008473 L6.54091822,78.1008473 C6.41180114,78.1728089 6.2886895,78.2537656 6.16858058,78.3347223 L6.1055234,78.3796983 C5.75357148,78.6292203 5.4294266,78.9157055 5.13864662,79.2342415 L5.04255949,79.3421838 C4.95548052,79.4411309 4.87140428,79.5430764 4.78732804,79.6420235 C4.76330625,79.6750059 4.73928447,79.7109867 4.71225996,79.743969 C4.57713743,79.9298697 4.44802035,80.1247655 4.32791143,80.3436485 L4.19879435,80.5685283 C4.14474533,80.6674754 4.09369904,80.7694209 4.04265275,80.868368 C3.99160646,80.9673151 3.94656562,81.0752574 3.89852205,81.1831997 C3.85047849,81.291142 3.80844037,81.3900892 3.76640225,81.5010299 C3.70034234,81.6689401 3.64028788,81.8398487 3.58323615,82.0167542 C3.55621164,82.1007093 3.53218986,82.1876628 3.50816808,82.2746163 C3.46612995,82.4275346 3.42409183,82.5744561 3.38805916,82.7363695 L3.33401015,82.9672461 C3.28596658,83.1951243 3.24392846,83.4289993 3.21089851,83.6688711 C3.21089851,83.7258406 3.21089851,83.788807 3.18987945,83.8457765 C3.16285494,84.0466691 3.14183588,84.2505602 3.12682226,84.445456 L3.10880593,84.6703358 C3.09379231,84.9371931 3.08178142,85.2070489 3.08178142,85.4829014 C3.10304998,87.2582839 3.38427942,89.021012 3.91653839,90.7151047 C4.19126295,91.6128638 4.51811215,92.4938851 4.89542606,93.3536943 C5.08559851,93.7874624 5.28578004,94.2182322 5.49597065,94.6460035 C6.14431279,95.9268897 6.89861404,97.1514903 7.75101556,98.3070466 C9.44154856,100.600821 11.4803974,102.54678 13.6723851,103.812104 C14.5439879,104.32702 15.4772064,104.729992 16.4499038,105.011463 L17.759091,104.258865 L17.6449876,104.225883 Z" id="Path" fill="#455A64"></path>
                <path d="M26.6741754,94.7269603 C26.6741754,88.8650936 22.5514368,81.7319064 17.4648242,78.7994739 C14.9125097,77.3302592 12.6064185,77.1953314 10.9399073,78.1668121 L6.51689644,80.7064546 C4.84137705,81.6629433 3.81444581,83.728839 3.81444581,86.6672684 C3.81444581,92.5321334 7.93718438,99.6623222 13.023797,102.594755 C15.570106,104.063969 17.8761972,104.201896 19.5427085,103.233413 L23.9897411,100.678779 C25.6442414,99.7162933 26.6741754,97.6623912 26.6741754,94.7269603 Z" id="Path" fill="#FFAE40"></path>
                <path d="M26.6741754,94.7269603 C26.6741754,88.8650936 22.5514368,81.7319064 17.4648242,78.7994739 C14.9125097,77.3302592 12.6064185,77.1953314 10.9399073,78.1668121 L6.51689644,80.7064546 C4.84137705,81.6629433 3.81444581,83.728839 3.81444581,86.6672684 C3.81444581,92.5321334 7.93718438,99.6623222 13.023797,102.594755 C15.570106,104.063969 17.8761972,104.201896 19.5427085,103.233413 L23.9897411,100.678779 C25.6442414,99.7162933 26.6741754,97.6623912 26.6741754,94.7269603 Z" id="Path" fill="#000000" opacity="0.3"></path>
                <ellipse id="Oval" fill="#FFAE40" transform="translate(13.013421, 91.975991) rotate(-30.000000) translate(-13.013421, -91.975991) " cx="13.0134207" cy="91.9759913" rx="7.5160941" ry="13.008736"></ellipse>
                <ellipse id="Oval" fill="#263238" transform="translate(12.743763, 92.603285) rotate(-29.886527) translate(-12.743763, -92.603285) " cx="12.7437631" cy="92.6032854" rx="5.85227777" ry="10.13099"></ellipse>
                <path d="M16.5640073,88.166467 L12.3361735,92.3822136 L7.28859623,83.6478823 C8.57676436,82.898283 10.3663872,83.0062253 12.3361735,84.1426179 C14.0134368,85.1717161 15.4541487,86.5429165 16.5640073,88.166467 Z" id="Path" fill="#455A64"></path>
                <path d="M19.4856567,96.5080082 C19.4856567,98.7807934 18.6839297,100.381938 17.3837507,101.119543 L12.3361735,92.3822136 L16.5640073,88.166467 C18.3326111,90.6881191 19.4856567,93.7644747 19.4856567,96.5080082 Z" id="Path" fill="#37474F"></path>
                <path d="M17.3897561,101.119543 C16.101588,101.860147 14.2999542,101.764199 12.3361735,100.627806 C10.6560173,99.6020729 9.21623559,98.2277635 8.11434503,96.5979602 L12.3361735,92.3822136 L17.3897561,101.119543 Z" id="Path" fill="#455A64"></path>
                <path d="M12.3361735,92.3822136 L8.11434503,96.5979602 C6.33973579,94.0793064 5.19269563,90.9939556 5.19269563,88.2684125 C5.19269563,85.9896306 5.99442265,84.3944832 7.29460167,83.6478823 L12.3361735,92.3822136 Z" id="Path" fill="#37474F"></path>
                <path d="M18.1614559,104.285851 L18.203494,104.285851 C18.3596356,104.285851 18.5037663,104.303841 18.6659134,104.303841 L18.7409814,104.303841 C18.9661857,104.303841 19.1853844,104.288849 19.4015805,104.264862 L19.4256023,104.264862 C19.6095503,104.242592 19.7920297,104.209553 19.9720978,104.165915 C20.0471659,104.147925 20.1252367,104.132933 20.2003048,104.111944 C20.3414327,104.072965 20.4825607,104.02499 20.6176833,103.974017 C20.7528058,103.923045 20.8278739,103.890062 20.9179555,103.845086 L21.0620862,103.773125 C21.5043314,103.552074 21.9095213,103.263792 22.2631754,102.918582 C21.4635412,103.137669 20.6267552,103.186701 19.8069481,103.062505 L17.7560883,104.240875 C17.9032217,104.258865 18.0353415,104.276856 18.1614559,104.285851 Z" id="Path" fill="#263238"></path>
                <path d="M16.7471734,78.9374002 C16.7999688,79.7234054 17.1397257,80.4627523 17.7020393,81.0152895 C22.0860148,85.0391386 25.2959256,91.5786431 25.2959256,97.1136845 C25.2959256,101.146529 23.6023898,104.009998 20.8338793,104.972484 L20.8338793,104.972484 C21.1878209,104.859167 21.527398,104.705219 21.8457969,104.513729 L23.8846458,103.338357 C26.0526117,102.091024 27.3437826,99.4404408 27.3437826,95.9353144 C27.3437826,90.400273 24.1338718,83.8607685 19.7468936,79.8369194 C19.189456,79.2822157 18.8541553,78.5432709 18.8040386,77.75903 L18.8040386,69.600391 L16.7591843,70.7817596 L15.7502694,70.2000705 L16.7591843,70.7817596 L16.7471734,78.9374002 Z" id="Path" fill="#37474F"></path>
                <path d="M17.7020393,81.0152895 C17.1397257,80.4627523 16.7999688,79.7234054 16.7471734,78.9374002 L16.7471734,70.7817596 L15.7382585,70.2000705 L15.7382585,79.4261389 C15.7409028,79.5481192 15.7549769,79.6695845 15.7802966,79.788945 L15.798313,79.8818953 C15.8270169,80.0101227 15.8641305,80.1363275 15.9094137,80.2596934 C15.9820091,80.4501533 16.071443,80.6337805 16.1766561,80.8084001 C16.2036806,80.853376 16.2307051,80.8923552 16.2607323,80.9343328 C16.3387797,81.0577138 16.4261105,81.1749895 16.5219692,81.2851452 C16.5832285,81.3528536 16.6483986,81.4169287 16.7171462,81.4770427 L16.7171462,81.4770427 C16.9603667,81.6869305 17.1975819,81.9088119 17.4317942,82.1366901 L17.6179631,82.3195923 C17.8221482,82.5234833 18.0233307,82.7303727 18.2185076,82.9432589 L18.3085893,83.0392077 C18.5307908,83.2820778 18.7469869,83.5309448 18.9601802,83.7858086 C19.0172319,83.8517733 19.071281,83.9207365 19.12533,83.9867012 C19.3024906,84.2025858 19.4766485,84.4214688 19.644801,84.6463486 C19.6868392,84.7003197 19.7288773,84.7512925 19.7679127,84.8052637 C19.9690951,85.0751194 20.1612694,85.3479736 20.3684573,85.6268245 L20.5005771,85.8277171 C20.6567187,86.0585937 20.8008494,86.2924687 20.9539882,86.5293421 L21.0801026,86.7362315 C21.2572632,87.0360712 21.4254157,87.3179206 21.5905655,87.6117635 L21.6836499,87.7916673 C21.8187724,88.0405343 21.9508922,88.2923997 22.0770066,88.5472635 L22.1941128,88.7811384 C22.3412462,89.0809782 22.4943851,89.3808179 22.614494,89.7016464 C22.6325103,89.7406256 22.6505267,89.7826031 22.6655403,89.8215823 C22.7836474,90.0974349 22.8947481,90.3732874 22.9988425,90.64914 C23.0318725,90.7330951 23.0649024,90.8170502 23.0949297,90.9010053 C23.2090331,91.215837 23.3231366,91.5306688 23.4222265,91.8484989 C23.5213163,92.166329 23.611398,92.4841591 23.698477,92.8019892 C23.7164933,92.8679539 23.7345096,92.9369171 23.7495233,93.0058802 C23.8315977,93.3137157 23.903663,93.6225506 23.9657193,93.932385 L23.9927438,94.0883016 C24.0497956,94.370151 24.0948364,94.6520003 24.1368745,94.9338497 C24.1368745,94.9848224 24.1368745,95.0357952 24.1578936,95.0867679 C24.1999317,95.3866077 24.2299589,95.6864474 24.2539807,95.9862871 C24.2539807,96.0522519 24.2539807,96.1182166 24.2539807,96.1841813 C24.271997,96.4840211 24.2870107,96.7988528 24.2870107,97.1016909 C24.2870107,98.9007293 23.9296866,100.41492 23.2901067,101.5753 C23.1529267,101.82629 22.9973625,102.066817 22.8246846,102.294915 C22.7406084,102.405856 22.6535294,102.513798 22.5634477,102.615743 C22.473366,102.717689 22.3802816,102.813638 22.2841945,102.915583 C21.9305404,103.260793 21.5253505,103.549075 21.0831053,103.770126 L20.9389746,103.842088 C20.836882,103.887064 20.7347895,103.93204 20.6387023,103.971019 C20.5426152,104.009998 20.3834709,104.063969 20.2543538,104.09995 L20.2213238,104.09995 C20.1462558,104.120939 20.068185,104.135931 19.9931169,104.153921 L19.8579944,104.186904 C19.7228718,104.213889 19.5847466,104.237876 19.4466213,104.252868 L19.4045832,104.252868 C19.1852763,104.278067 18.9647368,104.29108 18.7439842,104.291848 L18.572829,104.291848 C18.45272,104.291848 18.3296084,104.291848 18.2064968,104.270859 L18.1614559,104.270859 C18.0353415,104.270859 17.9062245,104.243873 17.7801101,104.225883 L16.4709229,104.978481 C17.1972813,105.187851 17.9489535,105.296808 18.7049488,105.302307 C18.8070413,105.302307 18.9061312,105.302307 19.0052211,105.302307 C19.1043109,105.302307 19.2784688,105.302307 19.4045832,105.281319 L19.6357929,105.248336 C19.7829263,105.227348 19.9360652,105.206359 20.0621795,105.179373 L20.2723701,105.131399 L20.3564464,105.107412 C20.4855634,105.074429 20.6146805,105.041447 20.7407949,105.002468 L20.8308766,104.972484 C23.5993871,104.021992 25.2929249,101.146529 25.2929249,97.1136845 C25.2959256,91.5786431 22.0860148,85.0391386 17.7020393,81.0152895 Z" id="Path" fill="#455A64"></path>
                <path d="M12.1379937,78.4936374 L12.1980482,78.4726486 L12.2671108,78.4366678 L14.2999542,77.2732897 C14.5683693,77.1025229 14.7216341,76.7987363 14.6993164,76.4817128 L14.6993164,67.2406524 L12.6544621,68.4220209 L12.6544621,77.645091 C12.685241,78.0099534 12.4765075,78.3528981 12.1379937,78.4936374 Z" id="Path" fill="#37474F"></path>
                <path d="M9.68777184,77.2732897 C10.1794413,77.2737889 10.6699981,77.3199633 11.1531006,77.411216 C11.2736837,77.4426657 11.4020582,77.4151939 11.4991451,77.3371634 C11.596232,77.2591328 11.6505438,77.1397762 11.6455472,77.0154275 L11.6455472,76.097918 C10.9107961,76.1033339 10.1824797,76.2351955 9.49259485,76.4877096 L9.49259485,77.2852833 C9.55865475,77.2732897 9.62171193,77.2732897 9.68777184,77.2732897 Z" id="Path" fill="#37474F"></path>
                <path d="M9.94600601,78.286748 C10.1832211,78.286748 10.4264417,78.3197303 10.672665,78.3557111 C10.9132211,78.391267 11.1517601,78.4393064 11.387313,78.4996342 C11.4012743,78.4979392 11.4153898,78.4979392 11.4293511,78.4996342 L11.4563756,78.4996342 C11.5341272,78.5196549 11.6135144,78.5326998 11.6935907,78.5386133 L11.7146098,78.5386133 C11.7795878,78.543199 11.8448088,78.543199 11.9097868,78.5386133 L11.9458195,78.5386133 C12.0072947,78.5300101 12.0676855,78.5149341 12.1259828,78.4936374 L12.1259828,78.4936374 C12.4644966,78.3528981 12.6732301,78.0099534 12.6424512,77.645091 L12.6424512,68.4220209 L12.6424512,68.4220209 L11.6335363,67.8223415 L11.6335363,77.0064323 C11.6385329,77.130781 11.5842211,77.2501376 11.4871342,77.3281682 C11.3900473,77.4061987 11.2616728,77.4336705 11.1410897,77.4022208 C10.6579872,77.3109681 10.1674304,77.2647937 9.67576095,77.2642945 C9.60970104,77.2642945 9.54664386,77.2642945 9.48058396,77.2642945 L9.48058396,78.271756 L9.69377728,78.271756 C9.79586986,78.2897464 9.86493249,78.2837496 9.94600601,78.286748 Z" id="Path" fill="#455A64"></path>
                <path d="M13.2940421,62.7910308 C12.9217044,62.5781446 12.4112415,62.6081286 11.8467296,62.9349539 C10.6331721,63.7192454 9.870335,65.0375097 9.79586986,66.4790595 C9.79586986,67.1357085 10.0270795,67.5974617 10.3964144,67.8073495 L18.5758317,72.52083 L21.4584457,67.5105081 L13.2940421,62.7910308 Z" id="Path" fill="#FFAE40"></path>
                <path d="M13.2940421,62.7910308 C12.9217044,62.5781446 12.4112415,62.6081286 11.8467296,62.9349539 C10.6331721,63.7192454 9.870335,65.0375097 9.79586986,66.4790595 C9.79586986,67.1357085 10.0270795,67.5974617 10.3964144,67.8073495 L18.5758317,72.52083 L21.4584457,67.5105081 L13.2940421,62.7910308 Z" id="Path" fill="#000000" opacity="0.3"></path>
                <path d="M10.0450959,65.2347246 C9.88993863,65.6318021 9.80559024,66.0529365 9.79586986,66.4790595 C9.79586986,67.1357085 10.0270795,67.5974617 10.3964144,67.8073495 L18.5758317,72.52083 L19.5937547,70.7517756 L10.0450959,65.2347246 Z" id="Path" fill="#000000" opacity="0.3"></path>
                <path d="M17.9842953,71.19254 C18.0599699,69.7537062 18.8214,68.4381737 20.0321523,67.6544312 C20.5906588,67.3306043 21.0981189,67.2976219 21.4674538,67.5045114 C21.8367888,67.7114008 22.0679984,68.1761523 22.0679984,68.8328013 C21.9900954,70.2710165 21.2306684,71.5861285 20.0231441,72.3739085 C19.4556295,72.6977354 18.9451666,72.7307178 18.5758317,72.5148332 C18.2064968,72.2989486 17.9842953,71.8461906 17.9842953,71.19254 Z" id="Path" fill="#FFAE40"></path>
                <path d="M17.9842953,71.19254 C18.0599699,69.7537062 18.8214,68.4381737 20.0321523,67.6544312 C20.5906588,67.3306043 21.0981189,67.2976219 21.4674538,67.5045114 C21.8367888,67.7114008 22.0679984,68.1761523 22.0679984,68.8328013 C21.9900954,70.2710165 21.2306684,71.5861285 20.0231441,72.3739085 C19.4556295,72.6977354 18.9451666,72.7307178 18.5758317,72.5148332 C18.2064968,72.2989486 17.9842953,71.8461906 17.9842953,71.19254 Z" id="Path" fill="#000000" opacity="0.2"></path>
                <path d="M18.8700985,70.6768157 C18.9144961,69.8604548 19.3461664,69.1141952 20.0321523,68.6678895 C20.2598301,68.4660739 20.5914584,68.4328222 20.8547738,68.5854069 C21.1180893,68.7379916 21.2537161,69.0420059 21.1912033,69.3395305 C21.1465493,70.154257 20.7161692,70.8991003 20.0321523,71.3454583 C19.8040637,71.5447465 19.4743049,71.5771315 19.2117061,71.4260329 C18.9491073,71.2749342 18.8118063,70.9738042 18.8700985,70.6768157 Z" id="Path" fill="#37474F"></path>
                <path d="M20.6477105,69.0396908 C20.6534745,68.85894 20.6109845,68.6799113 20.5245988,68.520968 C20.3504121,68.5310459 20.1813435,68.5835463 20.0321523,68.6738863 C19.3461664,69.120192 18.9144961,69.8664516 18.8700985,70.6828125 C18.8658743,70.863405 18.9082716,71.0420433 18.9932102,71.2015352 C19.1683607,71.1915794 19.3384313,71.1390878 19.4886594,71.0486169 C20.1735014,70.601644 20.6039923,69.8554954 20.6477105,69.0396908 Z" id="Path" fill="#263238"></path>
                <path d="M66.4992894,32.1174267 C66.1299545,31.9045404 65.6164889,31.9345244 65.051977,32.2613497 C63.8434095,33.047163 63.0826822,34.3614814 63.00412,35.7994585 C63.00412,36.4561075 63.2383323,36.9148623 63.6046645,37.1277485 L71.781079,41.841229 L74.6666958,36.8309072 L66.4992894,32.1174267 Z" id="Path" fill="#FFAE40"></path>
                <path d="M66.4992894,32.1174267 C66.1299545,31.9045404 65.6164889,31.9345244 65.051977,32.2613497 C63.8434095,33.047163 63.0826822,34.3614814 63.00412,35.7994585 C63.00412,36.4561075 63.2383323,36.9148623 63.6046645,37.1277485 L71.781079,41.841229 L74.6666958,36.8309072 L66.4992894,32.1174267 Z" id="Path" fill="#000000" opacity="0.3"></path>
                <path d="M63.2443378,34.558122 C63.0922846,34.954942 63.0090199,35.374722 62.9981145,35.7994585 C62.9981145,36.4561075 63.2323269,36.9148623 63.5986591,37.1277485 L71.7750736,41.841229 L72.7959994,40.0691762 L63.2443378,34.558122 Z" id="Path" fill="#000000" opacity="0.3"></path>
                <path d="M71.1925454,40.5189358 C71.2704484,39.0807206 72.0298753,37.7656087 73.2373997,36.9778286 C73.7989088,36.6570001 74.306369,36.6240178 74.6757039,36.8309072 C75.0450389,37.0377966 75.2762485,37.5025482 75.2762485,38.1591972 C75.2005739,39.5980309 74.4391438,40.9135635 73.2283915,41.697306 C72.6638796,42.0241313 72.1534167,42.0541152 71.781079,41.841229 C71.4087414,41.6283428 71.1925454,41.169588 71.1925454,40.5189358 Z" id="Path" fill="#FFAE40"></path>
                <path d="M71.1925454,40.5189358 C71.2704484,39.0807206 72.0298753,37.7656087 73.2373997,36.9778286 C73.7989088,36.6570001 74.306369,36.6240178 74.6757039,36.8309072 C75.0450389,37.0377966 75.2762485,37.5025482 75.2762485,38.1591972 C75.2005739,39.5980309 74.4391438,40.9135635 73.2283915,41.697306 C72.6638796,42.0241313 72.1534167,42.0541152 71.781079,41.841229 C71.4087414,41.6283428 71.1925454,41.169588 71.1925454,40.5189358 Z" id="Path" fill="#000000" opacity="0.2"></path>
                <path d="M72.0783486,40.0092083 C72.1220668,39.1934037 72.5525577,38.447255 73.2373997,38.0002821 C73.475435,37.8295482 73.7862642,37.7975971 74.0541403,37.916327 C74.298701,38.0850169 74.4312108,38.3738173 74.3994534,38.6689247 C74.3560164,39.4855705 73.9241126,40.2322337 73.2373997,40.6778509 C73.0100885,40.878757 72.679575,40.91198 72.4167243,40.7603446 C72.1538736,40.6087092 72.0175984,40.3062014 72.0783486,40.0092083 L72.0783486,40.0092083 Z" id="Path" fill="#37474F"></path>
                <path d="M73.8559606,38.3660866 C73.8601848,38.1854941 73.8177875,38.0068558 73.7328489,37.8473639 C73.5576984,37.8573197 73.3876278,37.9098112 73.2373997,38.0002821 C72.5517759,38.4469304 72.1202216,39.1929894 72.0753459,40.0092083 C72.0705005,40.1902318 72.1140308,40.3692772 72.2014603,40.527931 C72.375647,40.5178532 72.5447156,40.4653527 72.6939068,40.3750128 C73.3795306,39.9283644 73.8110848,39.1823054 73.8559606,38.3660866 L73.8559606,38.3660866 Z" id="Path" fill="#263238"></path>
                <path d="M72.7959994,15.0865301 L63.967994,9.98925473 C63.4027375,8.91384484 62.7242931,7.90166482 61.9441588,6.96986867 C66.6824555,7.79442792 70.4298537,10.6608957 72.7959994,15.0865301 Z" id="Path" fill="#FFAE40"></path>
                <path d="M72.7959994,15.0865301 L63.967994,9.98925473 C63.4027375,8.91384484 62.7242931,7.90166482 61.9441588,6.96986867 C66.6824555,7.79442792 70.4298537,10.6608957 72.7959994,15.0865301 Z" id="Path" fill="#000000" opacity="0.2"></path>
                <path d="M71.1625181,37.0288014 C71.6116128,34.6449128 71.8437689,32.225336 71.8561471,29.7996656 C71.8561471,13.4014308 60.3286938,6.75398407 46.1077981,14.9546006 C31.8869024,23.1552172 20.3564464,43.0915607 20.3564464,59.4897954 C20.3425687,61.6541379 20.5762939,63.8129816 21.0530781,65.924356 L17.7320665,67.8403318 C17.3186104,65.7024822 17.117454,63.5291053 17.131522,61.3518001 C17.131522,42.8966649 30.1092904,20.4506628 46.1168063,11.2245944 C62.1243221,1.99852598 75.0990879,9.4765288 75.0990879,27.9346625 C75.09395,30.345643 74.8931109,32.7522411 74.4985433,35.1308159 L71.1955481,37.040795" id="Path" fill="#37474F"></path>
                <path d="M71.1655208,37.0288014 C71.6123481,34.6436335 71.8434875,32.2231761 71.8561471,29.7966672 C71.8561471,18.9814482 66.8415998,12.4059629 59.3438007,11.5394261 C61.6889273,14.6637561 63.0341472,19.1223728 63.0341472,24.7323742 C63.0198115,27.1518482 62.788681,29.5651878 62.3435209,31.9435196 L71.1655208,37.0288014 Z" id="Path" fill="#263238"></path>
                <path d="M66.0759055,8.90983171 C60.8751894,6.21127416 53.8458151,6.76897605 46.1077981,11.2305912 C30.0972795,20.4506628 17.1225138,42.8936665 17.1225138,61.3547985 C17.1082931,63.5301246 17.3094527,65.7015273 17.7230584,67.8373334 L8.91607205,62.7580485 C8.49363145,60.6262378 8.28541076,58.4576346 8.29422273,56.2845087 C8.29422273,37.8263751 21.2692741,15.3833714 37.2797927,6.15430461 C45.2760439,1.54276959 52.5126061,1.10800199 57.758363,4.12738805 C59.1035829,4.88898096 64.055073,7.74645357 66.0759055,8.90983171 Z" id="Path" fill="#455A64"></path>
                <path d="M13.2249794,60.2453915 C12.9794602,60.2366425 12.7404348,60.1643149 12.5313504,60.0355037 C11.6601274,59.467528 11.1098758,58.5209905 11.0480053,57.4838676 C11.0480053,56.8002331 11.4023266,56.3594687 11.9488222,56.3594687 C12.1941133,56.3670379 12.4331881,56.438347 12.6424512,56.5663581 C13.5156269,57.1394496 14.0657436,58.091315 14.1257963,59.1329861 C14.1227936,59.8016287 13.7684723,60.2453915 13.2249794,60.2453915 Z" id="Path" fill="#263238"></path>
                <path d="M67.3850927,7.13777892 C64.8212165,5.76450055 61.9496838,5.06493432 59.0405257,5.10486556 C54.6175148,5.10486556 49.9002371,6.53210267 45.014807,9.34459932 C33.7095552,15.8601166 23.8456104,28.7742137 18.7109542,42.3899357 L9.88895427,37.2926604 C15.0236105,23.6769383 24.9025689,10.7628412 36.192807,4.24732394 C41.0782372,1.43482729 45.8015204,0.00159339248 50.2185258,0.00159339248 C53.2384561,-0.0396328839 56.2152946,0.719800397 58.8453487,2.202417 C60.2416149,3.02397785 65.517399,6.0583559 67.3850927,7.13777892 Z" id="Path" fill="#FFAE40"></path>
                <path d="M67.3850927,7.13777892 C64.8212165,5.76450055 61.9496838,5.06493432 59.0405257,5.10486556 C54.6175148,5.10486556 49.9002371,6.53210267 45.014807,9.34459932 C33.7095552,15.8601166 23.8456104,28.7742137 18.7109542,42.3899357 L9.88895427,37.2926604 C15.0236105,23.6769383 24.9025689,10.7628412 36.192807,4.24732394 C41.0782372,1.43482729 45.8015204,0.00159339248 50.2185258,0.00159339248 C53.2384561,-0.0396328839 56.2152946,0.719800397 58.8453487,2.202417 C60.2416149,3.02397785 65.517399,6.0583559 67.3850927,7.13777892 Z" id="Path" fill="#FFFFFF" opacity="0.352430051"></path>
                <path d="M72.7929967,15.0835317 C69.9644317,9.80935089 65.1630777,6.72999689 59.0405257,6.72999689 C54.9057762,6.72999689 50.4587436,8.08227406 45.8285449,10.753846 C34.7484973,17.1404322 25.0887377,29.8476399 20.122234,43.2054998 L18.7109542,42.3899357 C23.8456104,28.7742137 33.7095552,15.8601166 45.014807,9.34459932 C49.9002371,6.53210267 54.6235203,5.10486556 59.0405257,5.10486556 C65.4843691,5.10486556 70.6040117,8.1452404 73.753868,13.425418 L72.7929967,15.0835317 Z" id="Path" fill="#FFAE40"></path>
            </g>
        </g>
    </g>
</svg>